<svg id="Layer_1" data-name="Layer 1" xmlns="http://www.w3.org/2000/svg" width="98.41" height="74.43" viewBox="0 0 98.41 74.43"><defs><style>.cls-1{fill:#fff;}.cls-2{fill:#e5047e;}.cls-3{fill:#35a6de;}</style></defs><title>logoringhell</title><path id="ring" class="cls-1" d="M85.65,32.79h0L84.24,33a35.8,35.8,0,0,0-69.73-6.38l-1.36-.42A37.22,37.22,0,0,1,85.65,32.79ZM48.7,73A35.81,35.81,0,0,1,14.11,46.46l-1.37.37a37.23,37.23,0,0,0,67.91,9.5l-1.22-.73A35.78,35.78,0,0,1,48.7,73Z"/><path id="sc" class="cls-2" d="M79.79,41.92c0,1.31-1,1.8-2.32,1.8s-2.1-.43-2.1-1.62c0-1.42,1.22-1.86,2.32-1.86C78.94,40.25,79.79,40.72,79.79,41.92Zm5.78-5.84c-2.7,0-4.59.67-4.59,2.1,0,2.43,3.78,1.93,3.78,3.05a0.47,0.47,0,0,1-.51.53,0.38,0.38,0,0,1-.36-0.43A0.9,0.9,0,0,1,84,40.92a3.84,3.84,0,0,0-1.73-.4c-1,0-1.92.4-1.92,1.41s1.49,1.65,3.39,1.65c3.24,0,4.84-.81,4.84-2.61,0-2-3.71-1.72-3.71-2.75a0.39,0.39,0,0,1,.44-0.38,0.36,0.36,0,0,1,.38.37,0.78,0.78,0,0,1-.12.36,4,4,0,0,0,1.78.37c0.91,0,1.82-.27,1.82-1.18S88,36.09,85.57,36.09Zm10,4.08c1.32,0,2.8-.58,2.8-1.93s-1.24-2.14-3.64-2.14c-4.23,0-5.44,1.8-5.44,4.5,0,2,1.41,3,4,3,2.43,0,4.32-.8,4.32-2.14A0.85,0.85,0,0,0,97,40.57a4,4,0,0,1-2.5.9,1.13,1.13,0,0,1-1.32-1.17c0-.72.31-2,0.9-2a0.35,0.35,0,0,1,.36.43,3,3,0,0,1-.33,1.14A3.4,3.4,0,0,0,95.61,40.16Z"/><path id="http" class="cls-3" d="M28.37,25.84a3.25,3.25,0,0,0,.05.58,3.49,3.49,0,0,1-1,.17,1.2,1.2,0,0,1-1.38-1.24,9.34,9.34,0,0,1,.17-1.28c0-.09,0-0.13-0.11-0.13-0.44,0-.51,1.75-0.5,2a3.08,3.08,0,0,0,.05.53,4.62,4.62,0,0,1-1,.15,1.13,1.13,0,0,1-1.34-1.22c0-1,.72-2.93.69-4.41a3.29,3.29,0,0,0,0-.49,4.62,4.62,0,0,1,1-.14,1.09,1.09,0,0,1,1.35,1.07,6.66,6.66,0,0,1-.48,2,2.37,2.37,0,0,1,1.87-1.28,0.9,0.9,0,0,1,1,.93C28.78,23.86,28.35,24.76,28.37,25.84Zm3.9-1.72a1.18,1.18,0,0,0-.37.07,1.07,1.07,0,0,1-.63,1.06,0.17,0.17,0,0,1-.17-0.19,15,15,0,0,1,.34-1.82,2.54,2.54,0,0,0,.61.08A0.77,0.77,0,0,0,33,22.54a1,1,0,0,0-.12-0.44,11.5,11.5,0,0,1-1.28.07,1.1,1.1,0,0,0-1.35-1.09,4.68,4.68,0,0,0-1,.14,4.54,4.54,0,0,1,.05.57c0,1.33-.55,2.61-0.53,3.59,0,0.76.54,1.25,1.67,1.23,1.59,0,2.59-.93,2.57-1.9A0.65,0.65,0,0,0,32.27,24.12ZM36.84,24a1.18,1.18,0,0,0-.37.07,1.07,1.07,0,0,1-.63,1.06A0.17,0.17,0,0,1,35.68,25,15,15,0,0,1,36,23.15a2.54,2.54,0,0,0,.61.08,0.77,0.77,0,0,0,.91-0.77A1,1,0,0,0,37.43,22a11.71,11.71,0,0,1-1.28.07A1.1,1.1,0,0,0,34.81,21a4.63,4.63,0,0,0-1,.14,3.93,3.93,0,0,1,.05.57c0,1.33-.55,2.62-0.53,3.59,0,0.76.54,1.25,1.67,1.23,1.59,0,2.59-.93,2.57-1.9A0.65,0.65,0,0,0,36.84,24Zm6.53-.88c0,1.65-.74,3.11-3.42,3.2a7.46,7.46,0,0,0-.1,1.15,3.18,3.18,0,0,0,.05.51,4.76,4.76,0,0,1-1,.14,1.12,1.12,0,0,1-1.34-1.22c0-1,.71-3.37.69-4.41a2.86,2.86,0,0,0,0-.49,4.59,4.59,0,0,1,1-.14,1.09,1.09,0,0,1,1.35,1,2.17,2.17,0,0,1,1.71-1.08A1.07,1.07,0,0,1,43.38,23.16Zm-2.5.78c0-.18,0-0.25-0.13-0.25s-0.3.13-.55,1.44h0.1C40.68,25.14,40.88,24.28,40.87,23.94Zm4.2,0.35a1.18,1.18,0,0,0-1.37,1.14,1,1,0,0,0,1.28.95,1.15,1.15,0,0,0,1.37-1.11A1,1,0,0,0,45.07,24.29Zm0.51-2.5a1.19,1.19,0,0,0-1.37,1.14,1,1,0,0,0,1.28.95,1.15,1.15,0,0,0,1.37-1.11A1,1,0,0,0,45.58,21.78Zm4.23-2.64-0.31,0c0,1.5-2.58,5.91-2.56,6.93a0.78,0.78,0,0,0,1,.65l0.27,0c0-1.4,2.53-5.91,2.51-6.95A0.71,0.71,0,0,0,49.81,19.15Zm2.31,0-0.31,0c0,1.5-2.58,5.91-2.56,6.93a0.78,0.78,0,0,0,1,.65l0.27,0c0-1.4,2.53-5.91,2.51-6.95A0.71,0.71,0,0,0,52.13,19.11Z"/><path id="name" class="cls-1" d="M9.92,34.15a1.49,1.49,0,0,0,.22-0.67,0.68,0.68,0,0,0-.73-0.7,0.74,0.74,0,0,0-.83.73c0,2,7,1.37,7,5.22,0,3.41-3,4.95-9.17,4.95C2.82,43.67,0,42.54,0,40.55s1.75-2.66,3.63-2.66a7.27,7.27,0,0,1,3.28.75,1.71,1.71,0,0,0-.24.81,0.72,0.72,0,0,0,.67.81,0.89,0.89,0,0,0,1-1c0-2.12-7.15-1.18-7.15-5.78,0-2.72,3.58-4,8.69-4,4.63,0,6.86,1.13,6.89,3.12,0,1.72-1.72,2.23-3.44,2.23A7.66,7.66,0,0,1,9.92,34.15Zm22.3,5.46A1.61,1.61,0,0,0,31,38a7.61,7.61,0,0,1-4.73,1.69c-1.37,0-2.5-.57-2.5-2.21,0-1.37.59-3.82,1.69-3.82a0.65,0.65,0,0,1,.67.81,5.69,5.69,0,0,1-.62,2.15,6.4,6.4,0,0,0,2.85.59c2.5,0,5.3-1.1,5.3-3.66,0-2.31-2.34-4.06-6.89-4.06-8,0-10.3,3.42-10.3,8.53,0,3.85,2.66,5.65,7.61,5.65C28.64,43.67,32.22,42.17,32.22,39.61Zm1.13-.13c0-5.3,2.58-10,11.38-10a69.6,69.6,0,0,1,7,.54c-0.89,3.47-2.1,7.53-2.1,11.05a13.81,13.81,0,0,0,.16,2.12,13.55,13.55,0,0,1-3.28.46c-2.72,0-3.85-1.29-3.85-3.26a4.81,4.81,0,0,1,0-.62c-1.72,2.58-3.74,3.87-5.87,3.87C34.88,43.67,33.35,42.73,33.35,39.48Zm7.91-2.12a0.48,0.48,0,0,0,.46.59c0.81,0,1.24-1.94,1.83-4.49a0.83,0.83,0,0,0-.35-0.08C41.9,33.37,41.26,36.3,41.26,37.35ZM59.49,38c0-5.11,2.74-8.53,10.3-8.53,4.55,0,6.89,1.75,6.89,4.06,0,3.12-4.22,4.49-7.77,4.49a12.63,12.63,0,0,1-2.1-.19c0.13,1.37,1.21,1.83,2.47,1.83a10,10,0,0,0,5.11-1.56,1.86,1.86,0,0,1,1,1.61c0,2.88-4.22,3.93-8.26,3.93C62.58,43.67,59.49,41.76,59.49,38Zm7.45-1.75c1.59-.08,2.21-1,2.21-1.75a0.74,0.74,0,0,0-.67-0.86C67.75,33.67,67.37,34.23,66.94,36.28Zm-16,3.47c0,2.63,1.35,3.93,4.17,3.93a14.78,14.78,0,0,0,3.17-.4,9.86,9.86,0,0,1-.13-1.61c0-4.46,2.45-11.22,2.45-14.34,0-2.18-1.37-3.44-4.2-3.44a14.57,14.57,0,0,0-3.15.4,9.77,9.77,0,0,1,.11,1.56C53.33,30.52,50.91,36.6,50.91,39.75ZM32.14,49.61c1.06,0,2.24-.47,2.24-1.54s-1-1.72-2.91-1.72c-3.38,0-4.35,1.44-4.35,3.6,0,1.62,1.12,2.39,3.21,2.39s3.45-.64,3.45-1.71a0.68,0.68,0,0,0-.53-0.68,3.21,3.21,0,0,1-2,.72,0.9,0.9,0,0,1-1.06-.93c0-.58.25-1.61,0.72-1.61a0.28,0.28,0,0,1,.28.34,2.41,2.41,0,0,1-.26.91A2.69,2.69,0,0,0,32.14,49.61Zm9.18-.86c0,2.16-1,3.59-4.07,3.59-1.83,0-3-.76-3-2.39,0-2.16,1-3.6,4.07-3.6C40.13,46.35,41.32,47.15,41.32,48.74Zm-3-.25c0-.3-0.09-0.39-0.28-0.39s-0.48.26-.67,1.24a5.25,5.25,0,0,0-.14.93c0,0.26.08,0.34,0.26,0.34s0.51-.26.71-1.27A4.47,4.47,0,0,0,38.34,48.49Zm14.09-.88a1.2,1.2,0,0,0-1.38-1.26,3.2,3.2,0,0,0-2.4,1.43,2.54,2.54,0,0,0,0-.34,1.11,1.11,0,0,0-1.32-1.09A3,3,0,0,0,45,47.79a1.86,1.86,0,0,0,0-.34c0-.67-0.44-1.09-1.49-1.09a6.78,6.78,0,0,0-1.5.2v0.19c0,1.5-.61,2.65-0.61,3.89a1.5,1.5,0,0,0,1.76,1.66,6.27,6.27,0,0,0,1.34-.17,4.61,4.61,0,0,1,0-.7c0-.48.11-2.66,0.7-2.66,0.1,0,.14.06,0.14,0.17a12.75,12.75,0,0,0-.25,1.7,1.6,1.6,0,0,0,1.82,1.69,4.71,4.71,0,0,0,1.28-.2,4.47,4.47,0,0,1-.06-0.77c0-.48.19-2.59,0.75-2.59,0.1,0,.14.06,0.14,0.17a12.66,12.66,0,0,0-.25,1.7,1.6,1.6,0,0,0,1.82,1.69,4.69,4.69,0,0,0,1.28-.2,4.57,4.57,0,0,1-.06-0.77C51.83,49.91,52.43,48.72,52.43,47.61Zm10.92,0A1.2,1.2,0,0,0,62,46.35a3.2,3.2,0,0,0-2.4,1.43,2.54,2.54,0,0,0,0-.34,1.11,1.11,0,0,0-1.32-1.09,3,3,0,0,0-2.35,1.44,1.86,1.86,0,0,0,0-.34c0-.67-0.44-1.09-1.49-1.09a6.78,6.78,0,0,0-1.5.2v0.19c0,1.5-.61,2.65-0.61,3.89a1.5,1.5,0,0,0,1.76,1.66,6.27,6.27,0,0,0,1.34-.17,4.61,4.61,0,0,1,0-.7c0-.48.11-2.66,0.7-2.66,0.1,0,.14.06,0.14,0.17a12.75,12.75,0,0,0-.25,1.7,1.6,1.6,0,0,0,1.82,1.69,4.71,4.71,0,0,0,1.28-.2,4.47,4.47,0,0,1-.06-0.77c0-.48.19-2.59,0.75-2.59,0.1,0,.14.06,0.14,0.17a12.66,12.66,0,0,0-.25,1.7,1.6,1.6,0,0,0,1.82,1.69,4.69,4.69,0,0,0,1.28-.2,4.57,4.57,0,0,1-.06-0.77C62.74,49.91,63.35,48.72,63.35,47.61Zm4,2.35a5.24,5.24,0,0,1-.89-0.08,0.89,0.89,0,0,0,1,.77A4.21,4.21,0,0,0,69.62,50a0.78,0.78,0,0,1,.41.68c0,1.22-1.78,1.66-3.49,1.66-1.91,0-3.21-.81-3.21-2.39,0-2.16,1.16-3.6,4.35-3.6,1.92,0,2.91.74,2.91,1.72C70.58,49.38,68.8,50,67.3,50Zm0.1-1.49a0.31,0.31,0,0,0-.28-0.36c-0.31,0-.47.24-0.65,1.1A0.84,0.84,0,0,0,67.4,48.47Zm9-2.09A3.14,3.14,0,0,0,74,48.31a2.57,2.57,0,0,0,.14-0.78c0-.7-0.43-1.14-1.48-1.14a7.09,7.09,0,0,0-1.51.2v0.19c0,1.5-.61,2.65-0.61,3.88a1.5,1.5,0,0,0,1.76,1.66,6.16,6.16,0,0,0,1.34-.17,5.11,5.11,0,0,1,0-.71c0-1.1.37-2.65,0.7-2.65,0.09,0,.14.09,0.14,0.23a1.74,1.74,0,0,1-.31.88,2.25,2.25,0,0,0,1,.23,2.54,2.54,0,0,0,2.45-2.5A1.17,1.17,0,0,0,76.35,46.38Zm6.07,3.23c1.06,0,2.24-.47,2.24-1.54s-1-1.72-2.91-1.72c-3.38,0-4.35,1.44-4.35,3.6,0,1.62,1.12,2.39,3.21,2.39s3.45-.64,3.45-1.71a0.68,0.68,0,0,0-.53-0.68,3.21,3.21,0,0,1-2,.72,0.9,0.9,0,0,1-1.06-.93c0-.58.25-1.61,0.72-1.61a0.28,0.28,0,0,1,.28.34,2.41,2.41,0,0,1-.26.91A2.69,2.69,0,0,0,82.42,49.61ZM88.53,50a5.24,5.24,0,0,1-.89-0.08,0.89,0.89,0,0,0,1,.77A4.21,4.21,0,0,0,90.84,50a0.78,0.78,0,0,1,.41.68c0,1.22-1.78,1.66-3.49,1.66-1.91,0-3.21-.81-3.21-2.39,0-2.16,1.16-3.6,4.35-3.6,1.92,0,2.91.74,2.91,1.72C91.81,49.38,90,50,88.53,50Zm0.1-1.49a0.31,0.31,0,0,0-.28-0.36c-0.31,0-.47.24-0.65,1.1A0.84,0.84,0,0,0,88.63,48.47Z"/></svg>
