<svg id="Layer_1" data-name="Layer 1" xmlns="http://www.w3.org/2000/svg" viewBox="13 13 41 31">
    <defs>
        <style>.cls-1{fill:#FFFFFF;}</style>
    </defs>
    <title>Avatar</title>

    <path class="cls-1" d="M41.93,33.09c0,.44-.35.86-1.15.86s-1.11-.41-1.11-.88a1.29,1.29,0,0,1,.91-1.1C41.37,32.25,41.93,32.53,41.93,33.09ZM41,29.72a1.38,1.38,0,0,0,.76-1.17c0-.53-.34-.85-.94-.85s-1,.32-1,.86S40.29,29.45,41,29.72Zm10.53-4.36-.25.53.1.66v.89l-.4-.16-.16.43v.51l-.65-.08-.43.05-.58,1.32.05.63.6.13-.07.4-.84-.33L49,31l-.56.81-.76,0,.08.43-1.17,1.08L46,34.84l-.1,1.59-.15.56-.13-.46-.25-.07,0,.48-.91,2.25-1.21.25-.23.81-1.19,0v.36l-.48.23-.2,0s-.81,1.06-.88,1.08a10.53,10.53,0,0,0-.74.89l-.65-.05-.1-.43L38.25,42l-.15-.41L38,41l-.33-.22-.63,0,.18-.56L37,39.69,36.26,39,35.63,39,35,39l-.08.43-1.06-.68-.25.17-1,.06-.23.32-.76-.55-.38.17-.3-.15-.48-.68L30,37.85l-.37-1,.12-.89-.1-.6-.43-.53-.3-.36s.43-.25.48-.45a1.29,1.29,0,0,1,.3-.46l.33-.25-.48-.53-.28-.41-.88-.35-.1-.28-.36-.45-.5-.36-.71-.15-.3.18-.28.48,0,.33-.65-.38-.54.81-.83,0-.38.2-.33.26.33.45-.2.86-.46.56,0,.58-1-.35-.33-.28-.1-.71-.36.15-.3-.63.13-.25.53-.1.07-.21h-.4l-.2-.58-.36-.07-.32.35-.56.13.3-.58-.58.07-.15.38-.66,0,.31-.33-.41.1-.53-.15.86-.5s-.61-.05-.71-.16,0-.27,0-.27l-.76-.16a1.15,1.15,0,0,1,.31-.42c.17-.13-.08-.28-.08-.36s.05-.53.05-.53l.36-.56.73-.5,1-.18.13-.58.78-.3s1-.66,1.07-.74.15-.75.15-.75h.55l.66-.64s.86.18,1,.18a3.9,3.9,0,0,0,.68-1c0-.08,1.17-1.39,1.17-1.39l.32-.08,1.07-.58,0-.6.71-.05.05-.61.93-.91.51.15.61-.1.25-.53.43-.66.91,0,1-.43s.59-.15.66-.18a10.3,10.3,0,0,0,.81-.68l1.19-.41.43-.68s1.19.46,1.26.46.41-.64.41-.64l.78-.4s.81,0,.88,0,0,.55,0,.55l.79-.33.55-.4s.23.28.33.28a4.22,4.22,0,0,0,.61-.21s.45-.75.48-.83a4.25,4.25,0,0,1,1-.18l.25.28s.74-.25.81-.3l0,.1-.78,1-.76.45h-.63l-.46.06-.4.32-.13.71-.55-.58-.38.53.15,1,.61.66,1.74-.63,1.26-.84.18.18-.73.71,0,.3.43.15-.5.86-.51,0-.78.17v-.27L41.49,20l-.33.79.23,1.46,1.19,1.12,1,.35L45,24.6l.58-.4.66-.2.33-.6.81,0,.12-.69.61-.68.48.61.51.35h.4l.41.33.25.41h1l.63.17-.56.48,0,.38.81,0,.07.38Zm-16.36.33H33.39l-3.16.83.29,2,1.64-.31v7.8h3ZM45,33.31a3,3,0,0,0-1.56-2.66,3.11,3.11,0,0,0,1.32-2.43c0-1.48-1.21-2.71-3.87-2.71s-4,1.29-4,3a2.73,2.73,0,0,0,1.29,2.39,2.73,2.73,0,0,0-1.54,2.55c0,1.87,1.45,2.81,4.08,2.81S45,35.28,45,33.31ZM16.39,30.14l-.12.56.43-.11.43-.3.25-.61-.25-.1A6.72,6.72,0,0,0,16.39,30.14Z"/>
</svg>
