<svg id="Layer_1" data-name="Layer 1" xmlns="http://www.w3.org/2000/svg" viewBox="0 0 145.07 74.18"><defs><style>.cls-1{fill:#fff;}</style></defs><title>Main Logo white</title><path class="cls-1" d="M38.76,38.35l-1.6-6.27h2.46l.48,2.7.25,1.89.28-1.9.56-2.69h2.17l.57,2.71.27,1.88.25-1.9.48-2.69h2.46L45.8,38.35H43L42.73,37l-.46-2.33L41.83,37l-.31,1.39Zm76.55,0h2.39V32.08h-2.39Zm1.18-6.79c.86,0,1.3-.32,1.3-1.07s-.3-1.06-1.27-1.06-1.34.39-1.34,1.08S115.59,31.56,116.49,31.56ZM9.07,25H9a5.42,5.42,0,0,0-.63.47l-.1.48h0v0l.36-.09.37-.26.21-.52L9.07,25ZM47.66,35.3c0-2.08,1.12-3.36,3.17-3.36a2.56,2.56,0,0,1,2.85,2.72,6.29,6.29,0,0,1-.14,1.23H50.06c.08.58.51.83,1.35.83a4.23,4.23,0,0,0,1.68-.32l.29,1.66a7,7,0,0,1-2.48.43C48.47,38.49,47.66,37.1,47.66,35.3Zm2.39-.72h1.34V34.4c0-.49-.17-.77-.64-.77S50.06,34,50.05,34.58Zm62.66-.3A2.64,2.64,0,0,1,114,34a1.87,1.87,0,0,1,.42,0l.08-2.07a2.6,2.6,0,0,0-2,.84l-.28-.7h-1.91v6.27h2.38Zm-16.21,1c0-2.08,1.11-3.36,3.17-3.36a2.56,2.56,0,0,1,2.85,2.72,6.29,6.29,0,0,1-.14,1.23H98.9c.08.58.51.83,1.35.83a4.23,4.23,0,0,0,1.68-.32l.28,1.66a6.89,6.89,0,0,1-2.47.43C97.31,38.49,96.5,37.1,96.5,35.3Zm2.39-.72h1.34V34.4c0-.49-.17-.77-.64-.77S98.9,34,98.89,34.58ZM41.61,57.73a4.25,4.25,0,0,1-.06.7H38.21c0,1.28.67,1.69,1.63,1.69a3.18,3.18,0,0,0,1.4-.31l.16.67a4,4,0,0,1-1.68.35,2.2,2.2,0,0,1-2.39-2.52c0-1.59.79-2.63,2.28-2.63A1.86,1.86,0,0,1,41.61,57.73Zm-.85,0c0-.85-.4-1.32-1.19-1.32s-1.26.42-1.35,1.42h2.54ZM91.84,34a1.63,1.63,0,0,1,.74-.21c.39,0,.66.19.66.72v3.8h2.39v-4c0-1.47-.73-2.38-2-2.38a2.72,2.72,0,0,0-1.95.82l-.28-.68H89.45v6.27h2.39Zm-18.2,0a1.63,1.63,0,0,1,.74-.21c.39,0,.66.19.66.72v3.8h2.39v-4c0-1.47-.73-2.38-2-2.38a2.72,2.72,0,0,0-2,.82l-.28-.68H71.25v6.27h2.39ZM64.22,35.3c0-2.08,1.12-3.36,3.17-3.36a2.57,2.57,0,0,1,2.86,2.72,5.89,5.89,0,0,1-.15,1.23H66.62c.08.58.51.83,1.35.83a4.17,4.17,0,0,0,1.68-.32l.29,1.66a6.91,6.91,0,0,1-2.48.43C65,38.49,64.22,37.1,64.22,35.3Zm2.39-.72H68V34.4c0-.49-.16-.77-.64-.77S66.62,34,66.61,34.58Zm-9.26,3.91a7.72,7.72,0,0,1-2.66-.43v-8.4h2.39v2.28l0,.68a2.39,2.39,0,0,1,1.67-.68c1.41,0,2.34,1.2,2.34,3.08C61,37.41,59.47,38.49,57.35,38.49Zm-.27-1.9a1.86,1.86,0,0,0,.57.09c.7,0,1-.46,1-1.44,0-.79-.2-1.39-.87-1.39a1.43,1.43,0,0,0-.7.2Zm46.21-1.29c0-2.08,1.12-3.36,3.18-3.36a2.56,2.56,0,0,1,2.85,2.72,6.29,6.29,0,0,1-.14,1.23h-3.49c.09.58.51.83,1.36.83a4.15,4.15,0,0,0,1.67-.32l.29,1.66a6.89,6.89,0,0,1-2.47.43C104.1,38.49,103.29,37.1,103.29,35.3Zm2.39-.72H107V34.4c0-.49-.16-.77-.64-.77S105.69,34,105.68,34.58Zm-18.6-3c.85,0,1.29-.32,1.29-1.07s-.3-1.06-1.27-1.06-1.33.39-1.33,1.08S86.17,31.56,87.08,31.56ZM85.9,38.35h2.39V32.08H85.9Zm2,6.51A2.66,2.66,0,0,0,85.85,44l.09,2.14a1.93,1.93,0,0,1,.43,0,2.69,2.69,0,0,1,1.35.31v4.21H90.2V44.13h-2Zm-7-4c-2,0-2.9-.58-2.9-1.41,0-.67.57-1.11,1.37-1.33a1.08,1.08,0,0,1-.84-1,1.48,1.48,0,0,1,1-1.21,2,2,0,0,1-1.25-1.86c0-1.41,1.2-2.16,3-2.16a4.11,4.11,0,0,1,1.83.36L85,32.06l.11,1.59h-1a2.08,2.08,0,0,1,.05.42c0,1.26-1,2.11-3,2.11H80.8a.27.27,0,0,0,0,.16c0,.14.09.2.29.21l1.48.09c1,.06,2.26.36,2.26,1.73S83.81,40.91,81,40.91Zm-.44-6.78a.68.68,0,0,0,.72.76.69.69,0,0,0,.74-.78.7.7,0,0,0-.74-.78C80.8,33.33,80.52,33.61,80.52,34.13Zm.83,5.37c.66,0,1.18-.25,1.18-.65s-.23-.46-.76-.48l-1.08,0a.8.8,0,0,0-.28.55C80.41,39.23,80.66,39.5,81.35,39.5Zm4,8c0,1.86-.84,3.3-3.36,3.3a7.17,7.17,0,0,1-2.56-.44l.29-1.73a4.27,4.27,0,0,0,1.74.34c.87,0,1.31-.26,1.4-.87H79.24a6.52,6.52,0,0,1-.14-1.26,2.65,2.65,0,0,1,3-2.82C84.18,44,85.34,45.32,85.34,47.47Zm-2.48-.75c0-.64-.21-1-.72-1s-.67.3-.67.81v.18Zm14.62.75c0,1.86-.83,3.3-3.36,3.3a7.24,7.24,0,0,1-2.56-.44l.3-1.73a4.25,4.25,0,0,0,1.73.34c.88,0,1.32-.26,1.41-.87H91.39a6.11,6.11,0,0,1-.15-1.26,2.66,2.66,0,0,1,3-2.82C96.33,44,97.48,45.32,97.48,47.47ZM95,46.72c0-.64-.21-1-.73-1s-.66.3-.66.81v.18ZM77.77,43.93c0-2.08-1.47-2.45-2.83-2.45a5.3,5.3,0,0,0-1.42.16l.31,1.74a2.89,2.89,0,0,1,.7-.09c.58,0,.76.22.76.71v.26H73.72v1.93h1.57v4.43h2.48V46.19h.65V44.26h-.65Zm45.25-12a2.72,2.72,0,0,0-2,.82l-.29-.68h-1.91v6.27h2.39V34a1.57,1.57,0,0,1,.73-.21c.39,0,.67.19.67.72v3.8h2.39v-4C125.05,32.85,124.31,31.94,123,31.94ZM102.5,44.84a2.79,2.79,0,0,0-2-.85c-1.35,0-2.11.95-2.11,2.46v4.17h2.48V46.7c0-.56.28-.76.68-.76a1.62,1.62,0,0,1,.77.23v4.45h2.47V44.13h-2Zm29.9-6.48c0,1.29-1,2.55-3.83,2.55-2,0-2.9-.58-2.9-1.41,0-.67.57-1.11,1.37-1.33a1.08,1.08,0,0,1-.83-1,1.48,1.48,0,0,1,1-1.21,1.94,1.94,0,0,1-1.24-1.86c0-1.41,1.2-2.16,3-2.16a4.17,4.17,0,0,1,1.83.36l1.87-.24.1,1.59h-1a2.57,2.57,0,0,1,0,.42c0,1.26-.95,2.11-3,2.11h-.37a.23.23,0,0,0,0,.16c0,.14.1.2.3.21l1.47.09C131.12,36.69,132.4,37,132.4,38.36Zm-4.27-4.23a.68.68,0,0,0,.73.76.7.7,0,0,0,.74-.78.74.74,0,1,0-1.47,0Zm2,4.72c0-.27-.22-.46-.76-.48l-1.08,0a.81.81,0,0,0-.27.55c0,.33.25.6.94.6S130.14,39.25,130.14,38.85Zm-11.92,8.62c0,1.86-.84,3.3-3.36,3.3a7.24,7.24,0,0,1-2.56-.44l.3-1.73a4.25,4.25,0,0,0,1.73.34c.88,0,1.32-.26,1.41-.87h-3.61a6.11,6.11,0,0,1-.15-1.26,2.66,2.66,0,0,1,3-2.82C117.06,44,118.22,45.32,118.22,47.47Zm-2.47-.75c0-.64-.21-1-.73-1s-.66.3-.66.81v.18ZM107.65,44a4.86,4.86,0,0,0-1.78.29l.3,1.8a3.35,3.35,0,0,1,1.09-.19,1.49,1.49,0,0,1,0,3,3.54,3.54,0,0,1-1.06-.17l-.3,1.77a5.26,5.26,0,0,0,1.84.31,3.11,3.11,0,0,0,3.47-3.39C111.18,45.22,109.91,44,107.65,44ZM62.24,50.77a3.13,3.13,0,0,1-3.4-3.4,3.4,3.4,0,0,1,6.79,0A3.12,3.12,0,0,1,62.24,50.77Zm.92-3.4c0-.91-.24-1.5-.92-1.5s-.93.59-.93,1.5.24,1.52.93,1.52S63.16,48.28,63.16,47.37Zm-13.91-1.2v4.45h2.47V44.13h-2l-.29.71a2.83,2.83,0,0,0-2-.85c-1.34,0-2.11.95-2.11,2.46v4.17H47.8V46.7c0-.56.28-.76.69-.76A1.6,1.6,0,0,1,49.25,46.17Zm0,9.6h-.72v5h.88V57.08a1.79,1.79,0,0,1,1.49-.62H51l0-.78a2.19,2.19,0,0,0-1.75.67Zm7.18,2.47c0,1.57-.82,2.59-2.34,2.59s-2.34-1-2.34-2.59a2.35,2.35,0,1,1,4.68,0Zm-.87,0c0-1.25-.57-1.87-1.47-1.87s-1.47.62-1.47,1.87.57,1.85,1.47,1.85S55.51,59.49,55.51,58.26Zm-9.33,1.2a2.32,2.32,0,0,1-1.49.64c-.72,0-1-.44-1-1.13v-3.2h-.88V59a1.59,1.59,0,0,0,1.69,1.81,2.58,2.58,0,0,0,1.74-.68l.1.58h.72v-5h-.88Zm21-1.73a3.66,3.66,0,0,1-.07.7H63.78c0,1.28.67,1.69,1.63,1.69a3.11,3.11,0,0,0,1.39-.31l.16.67a4,4,0,0,1-1.67.35,2.21,2.21,0,0,1-2.4-2.52c0-1.59.8-2.63,2.28-2.63A1.86,1.86,0,0,1,67.18,57.73Zm-.86,0c0-.85-.39-1.32-1.19-1.32s-1.26.42-1.34,1.42h2.53Zm-4.38.47c0,1.76-1,2.68-2.41,2.68a3,3,0,0,1-1.09-.19v2h-.87V55.77h.72l.1.59A2.12,2.12,0,0,1,60,55.68C61.15,55.68,61.94,56.57,61.94,58.15Zm-.88.08c0-1.21-.51-1.83-1.28-1.83a2,2,0,0,0-1.33.65v2.88a2.83,2.83,0,0,0,1,.18C60.5,60.11,61.06,59.49,61.06,58.23ZM44.24,48.31V44.13H41.77v3.93c0,.56-.29.75-.69.75a1.6,1.6,0,0,1-.76-.22V44.13H37.84v6.49h2l.3-.7a2.83,2.83,0,0,0,2,.85C43.48,50.77,44.24,49.82,44.24,48.31Zm26.42-3.47a2.79,2.79,0,0,0-2-.85c-1.35,0-2.11.95-2.11,2.46v4.17H69V46.7c0-.56.28-.76.68-.76a1.62,1.62,0,0,1,.77.23v4.45h2.47V44.13H71ZM54.59,44a4.86,4.86,0,0,0-1.78.29l.31,1.8a3.33,3.33,0,0,1,1.08-.19,1.49,1.49,0,0,1,0,3,3.51,3.51,0,0,1-1.05-.17l-.31,1.77a5.26,5.26,0,0,0,1.84.31,3.11,3.11,0,0,0,3.47-3.39C58.12,45.22,56.86,44,54.59,44ZM29.09,23.48c-.54,0-.89.35-.89,1.1s.29,1,.84,1a1.77,1.77,0,0,0,.89-.26C29.93,24.23,29.85,23.48,29.09,23.48Zm7.34,2,.51.11-.06.34-.71-.28.08.54-.47.69-.65,0,.07.36-1,.93-.47,1.3-.09,1.35-.13.48-.11-.39-.21-.06,0,.41-.78,1.92-1,.21-.2.69-1,0v.31l-.41.19-.17,0s-.69.9-.76.93a9.41,9.41,0,0,0-.62.75l-.57,0-.08-.37-.5-.24L27,35.26l-.08-.5-.28-.19-.54,0,.15-.48L26,33.62l-.6-.56L24.84,33l-.56,0-.07.36-.9-.58-.22.15-.86,0-.2.28-.65-.47-.32.15-.26-.13-.41-.58L20,32l-.32-.82.11-.75L19.7,30l-.37-.45-.25-.31s.36-.21.41-.38a1.05,1.05,0,0,1,.25-.39L20,28.2l-.41-.45-.23-.35-.76-.3-.08-.24-.31-.38-.43-.31L17.2,26l-.26.15-.24.41,0,.29-.56-.33-.45.69-.71,0-.33.18-.28.21.28.39-.17.73-.39.48,0,.5-.86-.31L13,29.22l-.09-.61-.3.13-.26-.54.11-.21.45-.09.06-.17h-.34l-.17-.5-.31-.06-.28.3-.47.11.26-.5-.5.06-.13.33-.56,0,.26-.28-.34.09-.46-.13.74-.43a2.16,2.16,0,0,1-.61-.13c-.08-.09,0-.24,0-.24l-.65-.13a1.06,1.06,0,0,1,.26-.37c.15-.11-.06-.23-.06-.3s0-.45,0-.45l.3-.48.63-.43.84-.15.11-.5.67-.26.9-.62c.09-.07.13-.65.13-.65h.48l.56-.54s.73.15.82.15a3.34,3.34,0,0,0,.58-.86c0-.06,1-1.19,1-1.19l.28-.06.9-.5,0-.52.61,0,0-.52.8-.77.43.13.52-.09.21-.45.37-.57.78,0,.84-.36.56-.15c.07,0,.69-.59.69-.59l1-.34.36-.59s1,.39,1.08.39.35-.54.35-.54l.67-.34s.69,0,.75,0,0,.47,0,.47l.67-.28.48-.34s.19.24.28.24a3.63,3.63,0,0,0,.51-.18s.39-.64.41-.71a4.32,4.32,0,0,1,.82-.15l.22.24s.63-.22.69-.26l0,.08-.67.82-.64.39h-.54l-.39.05-.35.28-.1.6-.48-.5-.32.46.13.82.52.56,1.48-.54L31.74,15l.15.15-.62.6,0,.26.36.13-.43.74-.43,0-.67.15v-.24l-.24-.09-.28.67.2,1.25,1,.95.89.31,1.18.8.5-.35.56-.17.28-.51h.69l.11-.58.52-.58.41.51.43.31h.35l.34.28.22.34h.82l.54.15-.48.41,0,.33.69,0,.07.32-.5.15-.21.46.08.56v.75L37.94,23l-.13.37v.43l-.56-.06-.37,0-.5,1.12Zm-12-3.83H22.92l-2.7.72.25,1.73,1.4-.26v6.66h2.57Zm8,4c0-1.92-.47-4.16-3.45-4.16-2.39,0-3.39,1.45-3.39,3.14a2.55,2.55,0,0,0,2.71,2.82,3.37,3.37,0,0,0,1.51-.32A1.59,1.59,0,0,1,28,28.6a4,4,0,0,1-1.44-.25l-.26,1.94a4.9,4.9,0,0,0,2,.34C31.38,30.63,32.48,28.57,32.48,25.64Z"/></svg>