<svg id="Layer_1" data-name="Layer 1" xmlns="http://www.w3.org/2000/svg" viewBox="0 0 35.84 29.13"><defs><style>.cls-1{fill:#FFFFFF;}</style></defs><title>Avatar</title><path class="cls-1" d="M.86,15.73l.25-.61L.86,15a6.85,6.85,0,0,0-.73.56L0,16.13.43,16ZM35,11.33l.1.66v.88l-.4-.15-.15.43v.51l-.66-.08-.43.05-.58,1.31.05.63.61.13-.08.4-.83-.33.1.63-.56.81-.76,0,.08.43-1.16,1.09-.56,1.52-.1,1.59-.15.56L29.39,22l-.25-.08,0,.48-.91,2.25L27,24.88l-.23.81-1.19,0v.35l-.48.23-.2-.05s-.81,1.06-.88,1.09a10.41,10.41,0,0,0-.73.88l-.66-.05-.1-.43L22,27.45l-.15-.4-.1-.58-.33-.23-.63,0,.18-.56-.25-.58L20,24.47l-.63-.08-.66.05-.08.43-1.06-.68-.25.18-1,.05-.23.33-.76-.56-.38.18-.3-.15-.48-.68-.45-.25-.38-1,.13-.88-.1-.61-.43-.53-.3-.35s.43-.25.48-.45a1.33,1.33,0,0,1,.3-.45l.33-.25-.48-.53-.28-.4-.88-.35-.1-.28-.35-.45-.51-.35-.71-.15-.3.18-.28.48,0,.33-.66-.38-.53.81-.83,0-.38.2-.33.25.33.45-.2.86L6.8,20l0,.58-1-.35L5.43,20l-.1-.71L5,19.42l-.3-.63.13-.25.53-.1.08-.2H5l-.2-.58-.35-.08-.33.35-.56.13.3-.58-.58.08-.15.38L2.48,18l.3-.33-.4.1-.53-.15.86-.51A2.23,2.23,0,0,1,2,16.94c-.1-.1,0-.28,0-.28l-.76-.15a1.19,1.19,0,0,1,.3-.43c.18-.13-.08-.28-.08-.35s.05-.53.05-.53l.35-.56.73-.51,1-.18.13-.58.78-.3,1.06-.73c.1-.08.15-.76.15-.76h.56L6.92,11s.86.18,1,.18a4,4,0,0,0,.68-1c0-.08,1.16-1.39,1.16-1.39l.33-.08,1.06-.58,0-.61.71-.05.05-.61.94-.91.51.15.61-.1.25-.53.43-.66.91,0,1-.43.66-.18c.08,0,.81-.68.81-.68L19.18,3l.43-.68s1.19.45,1.26.45.4-.63.4-.63l.78-.4s.81,0,.88,0,0,.56,0,.56L23.73,2l.56-.4s.23.28.33.28a4.21,4.21,0,0,0,.61-.2s.45-.76.48-.83a4.55,4.55,0,0,1,1-.18l.25.28s.73-.25.81-.3l.05.1-.78,1-.76.45H25.6l-.45.05-.4.33-.13.71-.56-.58-.38.53.15,1,.61.66,1.74-.63,1.26-.83.18.18-.73.71,0,.3.43.15-.51.86-.51,0-.78.18V5.49l-.28-.1-.33.78.23,1.47,1.19,1.11,1,.35,1.39.94.58-.4.66-.2.33-.6.81,0,.13-.68.61-.68.48.61.51.35h.4l.4.33.25.4h1l.63.18-.56.48,0,.38.81,0,.08.38-.58.18Zm-16.11-.2H17.12L14,12l.29,2,1.64-.31v7.79h3Zm8.46,2.24-.09-2.24h-7V13.5h3.93l-.69,1.38-2.75,6.61H24Z"/></svg>
