<svg id="Layer_1" data-name="Layer 1" xmlns="http://www.w3.org/2000/svg" viewBox="0 0 69.48 68.08"><defs><style>.cls-1{fill:#fff;}</style></defs><title>Avatar wite</title><path class="cls-1" d="M25.36,47c-2.25,0-3.48,1.4-3.48,3.68,0,2,.89,3.48,3.55,3.48a7.59,7.59,0,0,0,2.71-.47l-.31-1.82a4.62,4.62,0,0,1-1.84.35c-.92,0-1.39-.27-1.48-.91h3.81A6.49,6.49,0,0,0,28.48,50,2.8,2.8,0,0,0,25.36,47ZM26,49.87H24.5c0-.67.22-1,.76-1s.71.32.71.85Zm13.93.71a1.38,1.38,0,0,0,1.56,1.56A3.58,3.58,0,0,0,42.58,52l.33,1.88a5.74,5.74,0,0,1-1.95.32c-2.36,0-3.67-1.31-3.67-3.57S38.63,47,41,47a5.19,5.19,0,0,1,1.89.31l-.33,1.9a3.54,3.54,0,0,0-1.14-.2A1.38,1.38,0,0,0,39.9,50.58Zm-21-3.44h2.7L19.84,54h-3l-.34-1.52L16,49.93l-.48,2.54L15.16,54h-3l-1.76-6.85h2.69l.54,3,.27,2.07.3-2.08.61-2.94h2.38l.62,3,.3,2,.27-2.08Zm14.77,0h2.61V54H34.18l-.31-.74a3,3,0,0,1-2.13.9c-1.42,0-2.23-1-2.23-2.6V47.14h2.62v4.15c0,.59.3.79.73.79a1.7,1.7,0,0,0,.8-.23ZM47.18,47c-2,0-3.07,1.42-3.07,3.62s1,3.49,3.23,3.49a5.24,5.24,0,0,0,2.27-.49l-.2-.74a4.4,4.4,0,0,1-1.95.44c-1.45,0-2.38-.67-2.41-2.61h4.77a5,5,0,0,0,.08-.9A2.54,2.54,0,0,0,47.18,47ZM49,50h-3.9c.13-1.56,1-2.19,2.06-2.19s1.84.72,1.84,2Zm8.37-2.84V54h-.78l-.11-.88a3.84,3.84,0,0,1-2.53,1,2.17,2.17,0,0,1-2.29-2.48v-4.5h.94v4.48c0,1,.41,1.7,1.52,1.7a3.58,3.58,0,0,0,2.31-1V47.14ZM16.72,30.59l-.43.11.13-.56a7.57,7.57,0,0,1,.73-.56l.25.1-.25.61ZM41.61,30a2,2,0,0,1-1,.31c-.64,0-1-.37-1-1.16s.41-1.29,1-1.29C41.52,27.82,41.61,28.7,41.61,30Zm10.52-4.77-.08-.38-.81,0,0-.38.55-.48-.63-.17h-1l-.25-.41-.4-.33h-.41l-.5-.35-.48-.61-.61.68-.13.69-.81,0-.32.6-.66.2-.58.4-1.39-.93-1-.35L41.41,22.2l-.22-1.46.32-.79.28.11v.27l.79-.17.5,0,.51-.86-.43-.15,0-.3.73-.71-.17-.18-1.27.84-1.74.63-.61-.66-.15-1,.38-.53.56.58.12-.71.41-.32.45-.06h.63l.76-.45.79-1,0-.1c-.08,0-.81.3-.81.3L43,15.25a4.36,4.36,0,0,0-1,.18c0,.08-.48.83-.48.83a4,4,0,0,1-.6.21c-.1,0-.33-.28-.33-.28l-.56.4-.78.33s.08-.53,0-.55-.89,0-.89,0l-.78.4s-.33.64-.4.64-1.27-.46-1.27-.46l-.43.68L34.29,18s-.74.66-.81.68l-.66.18-1,.43-.91,0-.43.66-.25.53-.6.1-.51-.15-.94.91-.05.61-.7.05,0,.6-1.06.58-.33.08s-1.16,1.31-1.16,1.39a3.9,3.9,0,0,1-.68,1c-.1,0-1-.18-1-.18l-.66.64H22s-.05.68-.15.75-1.06.74-1.06.74l-.78.3-.13.58-1,.18-.73.5-.35.56s0,.46,0,.53.25.23.07.36a1.2,1.2,0,0,0-.3.42l.76.16s-.1.17,0,.27.71.16.71.16l-.86.5.53.15.4-.1-.3.33.65,0,.16-.38.58-.07-.31.58.56-.13.33-.35.35.07.21.58h.4l-.08.21-.53.1-.12.25.3.63.35-.15.1.71.33.28,1,.35,0-.58.45-.56.21-.86-.33-.45.33-.26.38-.2.83,0,.53-.81.66.38,0-.33L26.4,31l.3-.18.71.15.51.36.35.45.1.28.89.35.27.41.48.53-.32.25a1.27,1.27,0,0,0-.31.46c-.05.2-.48.45-.48.45l.31.36.43.53.1.6-.13.89.38,1,.45.25.48.68.31.15.38-.17.75.55.23-.32,1-.06.26-.17,1.06.68L35,39l.66,0,.63.08.71.65.25.58-.17.56.63,0L38,41l.1.58.15.41.58.28.1.43.66.05s.66-.86.73-.89a13.31,13.31,0,0,0,.89-1.08l.2,0,.48-.23v-.36l1.19,0,.22-.81,1.22-.25.91-2.25,0-.48.25.07.13.46.15-.56.1-1.59.56-1.52,1.16-1.08-.07-.43.75,0L49,31l-.1-.63.83.33.08-.4-.61-.13,0-.63.58-1.32.43-.05.66.08v-.51l.15-.43.41.16v-.89l-.11-.66.26-.53ZM35.18,36h-3V28.22l-1.64.31-.29-2,3.16-.83h1.77Zm4.5.18a5.72,5.72,0,0,1-2.3-.4l.3-2.27a4.63,4.63,0,0,0,1.69.3,1.87,1.87,0,0,0,2.17-1.73,4.16,4.16,0,0,1-1.78.36,3,3,0,0,1-3.17-3.29c0-2,1.17-3.68,4-3.68,3.5,0,4,2.62,4,4.86C44.6,33.79,43.31,36.19,39.68,36.19Z"/></svg>